<svg xmlns="http://www.w3.org/2000/svg" xmlns:xlink="http://www.w3.org/1999/xlink" width="500" zoomAndPan="magnify" viewBox="0 0 375 374.999991" height="500" preserveAspectRatio="xMidYMid meet" version="1.0"><defs><g/><clipPath id="3770c457ea"><path d="M 81.234375 154 L 118 154 L 118 226.402344 L 81.234375 226.402344 Z M 81.234375 154 " clip-rule="nonzero"/></clipPath><clipPath id="863bb548b4"><path d="M 133 165 L 139.558594 165 L 139.558594 169 L 133 169 Z M 133 165 " clip-rule="nonzero"/></clipPath><clipPath id="5f3e43b8a7"><path d="M 98 134.152344 L 105 134.152344 L 105 147 L 98 147 Z M 98 134.152344 " clip-rule="nonzero"/></clipPath></defs><g clip-path="url(#3770c457ea)"><path fill="#231f20" d="M 95.6875 154.492188 C 95.6875 154.492188 84.425781 170.0625 107.226562 189.109375 C 130.027344 208.15625 106.253906 226.367188 106.253906 226.367188 C 106.253906 226.367188 111.539062 212.117188 106.324219 206.277344 C 101.109375 200.4375 97.253906 200.023438 90.996094 199.917969 C 84.738281 199.8125 83.175781 196.582031 84.636719 193.765625 C 86.097656 190.949219 82.890625 190.535156 84.128906 189.28125 C 85.371094 188.03125 82.761719 187.511719 82.96875 186.679688 C 83.175781 185.84375 86.097656 185.738281 83.59375 182.507812 C 81.09375 179.273438 81.40625 179.585938 84.117188 177.085938 C 86.828125 174.582031 88.574219 173.230469 88.394531 171.140625 C 88.269531 169.75 87.316406 170.214844 86.96875 169.054688 C 87.113281 169.449219 87.378906 169.722656 87.765625 169.871094 C 88.058594 169.988281 88.253906 170.019531 88.378906 170.023438 C 88.5 170.027344 88.566406 169.964844 88.574219 169.84375 C 88.65625 168.644531 89.453125 160.46875 95.6875 154.492188 Z M 95.6875 154.492188 " fill-opacity="1" fill-rule="nonzero"/></g><path fill="#231f20" d="M 107.050781 173.8125 C 107.050781 181.078125 111.414062 187.324219 117.660156 190.070312 C 112.605469 186.941406 109.242188 181.347656 109.242188 174.964844 C 109.242188 165.160156 117.1875 157.214844 126.992188 157.214844 C 129.480469 157.210938 131.859375 157.707031 134.136719 158.707031 C 131.277344 156.9375 128.167969 156.054688 124.804688 156.058594 C 115 156.058594 107.050781 164.007812 107.050781 173.8125 Z M 107.050781 173.8125 " fill-opacity="1" fill-rule="nonzero"/><path fill="#231f20" d="M 116.464844 167.277344 C 113.355469 170.457031 112.597656 175.058594 114.15625 178.933594 C 113.933594 178.035156 113.824219 177.125 113.835938 176.195312 C 113.84375 175.269531 113.972656 174.359375 114.214844 173.464844 C 114.457031 172.574219 114.808594 171.722656 115.269531 170.917969 C 115.726562 170.113281 116.28125 169.382812 116.929688 168.71875 C 121.125 164.425781 128.003906 164.34375 132.296875 168.539062 C 133.386719 169.601562 134.214844 170.835938 134.785156 172.25 C 134.289062 170.25 133.304688 168.535156 131.832031 167.097656 C 127.539062 162.902344 120.65625 162.984375 116.464844 167.277344 Z M 116.464844 167.277344 " fill-opacity="1" fill-rule="nonzero"/><path fill="#231f20" d="M 127.574219 166.9375 C 127.574219 166.9375 130.425781 169.589844 129.320312 172.65625 C 129.320312 172.65625 124.5 171.617188 126.210938 166.929688 C 126.210938 166.929688 126.855469 169.507812 127.9375 170.285156 C 127.941406 170.285156 126.511719 167.867188 127.574219 166.9375 Z M 127.574219 166.9375 " fill-opacity="1" fill-rule="nonzero"/><g clip-path="url(#863bb548b4)"><path fill="#231f20" d="M 133.328125 167.640625 C 133.328125 167.640625 136.691406 170.121094 139.703125 168.347656 C 139.703125 168.347656 137.660156 163.472656 133.050781 166.207031 C 133.050781 166.207031 135.898438 166.371094 136.929688 167.363281 C 136.929688 167.363281 134.097656 166.335938 133.328125 167.640625 Z M 133.328125 167.640625 " fill-opacity="1" fill-rule="nonzero"/></g><path fill="#231f20" d="M 95.980469 164.914062 C 95.980469 174.304688 101.621094 182.378906 109.699219 185.933594 C 103.164062 181.886719 98.8125 174.652344 98.8125 166.402344 C 98.8125 153.730469 109.089844 143.453125 121.765625 143.453125 C 124.980469 143.445312 128.058594 144.089844 131 145.382812 C 129.1875 144.261719 127.257812 143.410156 125.207031 142.828125 C 123.15625 142.246094 121.066406 141.957031 118.933594 141.960938 C 106.257812 141.960938 95.980469 152.238281 95.980469 164.914062 Z M 95.980469 164.914062 " fill-opacity="1" fill-rule="nonzero"/><path fill="#231f20" d="M 106.910156 150.546875 C 106.910156 150.546875 114.238281 147.648438 118.875 152.335938 C 118.875 152.335938 112.785156 160.234375 105.707031 153.023438 C 105.707031 153.023438 110.980469 154.097656 113.34375 152.792969 C 113.34375 152.792969 107.679688 153.292969 106.910156 150.546875 Z M 106.910156 150.546875 " fill-opacity="1" fill-rule="nonzero"/><path fill="#231f20" d="M 122.835938 143.820312 C 122.835938 143.820312 127.867188 144.898438 128.6875 149.125 C 128.6875 149.125 122.519531 151.210938 121.285156 144.726562 C 121.285156 144.726562 123.761719 147.222656 125.515625 147.371094 C 125.515625 147.367188 122.261719 145.589844 122.835938 143.820312 Z M 122.835938 143.820312 " fill-opacity="1" fill-rule="nonzero"/><path fill="#231f20" d="M 112.222656 142.222656 C 112.222656 142.222656 117.324219 140.109375 117.378906 135.492188 C 117.378906 135.492188 110.464844 134.480469 110.410156 141.558594 C 110.410156 141.558594 112.542969 138.449219 114.367188 137.957031 C 114.367188 137.957031 111.273438 140.464844 112.222656 142.222656 Z M 112.222656 142.222656 " fill-opacity="1" fill-rule="nonzero"/><path fill="#231f20" d="M 127.972656 142.15625 C 127.972656 142.15625 133.363281 143.34375 136.046875 139.582031 C 136.046875 139.582031 130.953125 134.796875 126.863281 140.578125 C 126.863281 140.578125 130.390625 139.246094 132.167969 139.882812 C 132.167969 139.882812 128.195312 140.171875 127.972656 142.15625 Z M 127.972656 142.15625 " fill-opacity="1" fill-rule="nonzero"/><g clip-path="url(#5f3e43b8a7)"><path fill="#231f20" d="M 102.320312 146.148438 C 102.320312 146.148438 107.113281 139.894531 103.871094 134.152344 C 103.871094 134.152344 94.609375 137.851562 99.609375 146.632812 C 99.609375 146.632812 100.015625 141.265625 101.917969 139.347656 C 101.917969 139.347656 99.890625 144.660156 102.320312 146.148438 Z M 102.320312 146.148438 " fill-opacity="1" fill-rule="nonzero"/></g><g fill="#b158cb" fill-opacity="1"><g transform="translate(116.592491, 202.974557)"><g><path d="M 15.46875 -0.390625 C 16.757812 -0.390625 17.582031 -0.628906 17.9375 -1.109375 C 18.300781 -1.585938 18.484375 -2.394531 18.484375 -3.53125 L 18.484375 -11.21875 L 15.9375 -11.21875 L 15.9375 -12.09375 L 27.359375 -12.09375 L 27.359375 -11.21875 L 25.8125 -11.21875 L 25.8125 -0.046875 L 25.21875 -0.046875 C 24.738281 -0.703125 24.066406 -1.03125 23.203125 -1.03125 C 22.828125 -1.03125 21.71875 -0.789062 19.875 -0.3125 C 18.039062 0.15625 16.476562 0.390625 15.1875 0.390625 C 10.875 0.390625 7.535156 -0.769531 5.171875 -3.09375 C 2.804688 -5.414062 1.625 -8.910156 1.625 -13.578125 C 1.625 -18.242188 2.859375 -21.847656 5.328125 -24.390625 C 7.804688 -26.929688 11.132812 -28.203125 15.3125 -28.203125 C 16.914062 -28.203125 18.53125 -27.992188 20.15625 -27.578125 C 21.789062 -27.171875 22.738281 -26.96875 23 -26.96875 C 23.257812 -26.96875 23.457031 -27.023438 23.59375 -27.140625 C 23.726562 -27.265625 23.875 -27.472656 24.03125 -27.765625 L 24.46875 -27.765625 L 24.78125 -19.15625 L 24.078125 -19.15625 C 22.773438 -21.71875 21.46875 -23.734375 20.15625 -25.203125 C 18.851562 -26.671875 17.394531 -27.40625 15.78125 -27.40625 C 11.738281 -27.40625 9.71875 -23.453125 9.71875 -15.546875 L 9.71875 -12.40625 C 9.71875 -8.445312 10.210938 -5.453125 11.203125 -3.421875 C 12.191406 -1.398438 13.613281 -0.390625 15.46875 -0.390625 Z M 15.46875 -0.390625 "/></g></g></g><g fill="#b158cb" fill-opacity="1"><g transform="translate(145.255791, 202.974557)"><g><path d="M 0.234375 -29.734375 L 9.953125 -29.734375 L 9.953125 -0.71875 L 12.171875 -0.71875 L 12.171875 0 L 0.390625 0 L 0.390625 -0.71875 L 2.578125 -0.71875 L 2.578125 -29.03125 L 0.234375 -29.03125 Z M 0.234375 -29.734375 "/></g></g></g><g fill="#b158cb" fill-opacity="1"><g transform="translate(157.783594, 202.974557)"><g><path d="M 9.90625 -9.3125 L 11.0625 -9.3125 L 11.0625 -12.375 C 11.0625 -14.882812 10.921875 -16.566406 10.640625 -17.421875 C 10.367188 -18.285156 9.835938 -18.71875 9.046875 -18.71875 C 8.566406 -18.71875 8.132812 -18.59375 7.75 -18.34375 C 7.363281 -18.09375 7.171875 -17.75 7.171875 -17.3125 C 7.171875 -16.875 7.253906 -16.429688 7.421875 -15.984375 L 8.40625 -15.984375 C 8.613281 -15.429688 8.71875 -14.765625 8.71875 -13.984375 C 8.71875 -13.203125 8.382812 -12.523438 7.71875 -11.953125 C 7.0625 -11.390625 6.234375 -11.109375 5.234375 -11.109375 C 2.960938 -11.109375 1.828125 -12.203125 1.828125 -14.390625 C 1.828125 -17.640625 4.585938 -19.265625 10.109375 -19.265625 C 13.253906 -19.265625 15.425781 -18.726562 16.625 -17.65625 C 17.832031 -16.59375 18.4375 -14.632812 18.4375 -11.78125 L 18.4375 -3.734375 C 18.4375 -2.359375 18.820312 -1.671875 19.59375 -1.671875 C 20.488281 -1.671875 21.015625 -3.03125 21.171875 -5.75 L 21.765625 -5.703125 C 21.660156 -3.378906 21.222656 -1.78125 20.453125 -0.90625 C 19.691406 -0.0390625 18.4375 0.390625 16.6875 0.390625 C 13.519531 0.390625 11.695312 -0.582031 11.21875 -2.53125 C 10.875 -1.53125 10.359375 -0.789062 9.671875 -0.3125 C 8.984375 0.15625 7.976562 0.390625 6.65625 0.390625 C 2.75 0.390625 0.796875 -1.207031 0.796875 -4.40625 C 0.796875 -6.28125 1.539062 -7.566406 3.03125 -8.265625 C 4.53125 -8.960938 6.820312 -9.3125 9.90625 -9.3125 Z M 8.328125 -4.4375 C 8.328125 -3.0625 8.398438 -2.175781 8.546875 -1.78125 C 8.691406 -1.382812 8.96875 -1.1875 9.375 -1.1875 C 9.789062 -1.1875 10.175781 -1.523438 10.53125 -2.203125 C 10.882812 -2.878906 11.0625 -3.8125 11.0625 -5 L 11.0625 -8.6875 L 10.78125 -8.6875 C 9.144531 -8.6875 8.328125 -7.484375 8.328125 -5.078125 Z M 8.328125 -4.4375 "/></g></g></g><g fill="#b158cb" fill-opacity="1"><g transform="translate(179.548676, 202.974557)"><g><path d="M 0.390625 -18.875 L 9.953125 -18.875 L 9.953125 -15.234375 C 10.828125 -17.921875 12.75 -19.265625 15.71875 -19.265625 C 18.695312 -19.265625 20.503906 -17.835938 21.140625 -14.984375 C 22.066406 -17.835938 24.007812 -19.265625 26.96875 -19.265625 C 30.851562 -19.265625 32.796875 -17.0625 32.796875 -12.65625 L 32.796875 -0.71875 L 35.015625 -0.71875 L 35.015625 0 L 24.03125 0 L 24.03125 -0.71875 L 25.421875 -0.71875 L 25.421875 -13.609375 C 25.421875 -15.609375 25.25 -16.78125 24.90625 -17.125 C 24.75 -17.289062 24.535156 -17.375 24.265625 -17.375 C 23.503906 -17.375 22.832031 -16.859375 22.25 -15.828125 C 21.664062 -14.796875 21.375 -13.484375 21.375 -11.890625 L 21.375 -0.71875 L 22.796875 -0.71875 L 22.796875 0 L 12.609375 0 L 12.609375 -0.71875 L 14 -0.71875 L 14 -13.609375 C 14 -15.609375 13.828125 -16.78125 13.484375 -17.125 C 13.328125 -17.289062 13.113281 -17.375 12.84375 -17.375 C 12.101562 -17.375 11.4375 -16.8125 10.84375 -15.6875 C 10.25 -14.5625 9.953125 -13.21875 9.953125 -11.65625 L 9.953125 -0.71875 L 11.375 -0.71875 L 11.375 0 L 0.390625 0 L 0.390625 -0.71875 L 2.578125 -0.71875 L 2.578125 -18.15625 L 0.390625 -18.15625 Z M 0.390625 -18.875 "/></g></g></g><g fill="#b158cb" fill-opacity="1"><g transform="translate(214.753395, 202.974557)"><g><path d="M 13.203125 -7.8125 L 13.203125 -11.1875 C 13.203125 -13.75 13.0625 -15.617188 12.78125 -16.796875 C 12.507812 -17.972656 11.867188 -18.5625 10.859375 -18.5625 C 10.285156 -18.5625 9.816406 -18.394531 9.453125 -18.0625 C 9.097656 -17.726562 8.84375 -17.179688 8.6875 -16.421875 C 8.445312 -15.234375 8.328125 -13.421875 8.328125 -10.984375 L 8.328125 -7.890625 C 8.328125 -5.003906 8.410156 -3.269531 8.578125 -2.6875 C 8.753906 -2.113281 8.9375 -1.640625 9.125 -1.265625 C 9.414062 -0.628906 9.984375 -0.3125 10.828125 -0.3125 C 11.859375 -0.3125 12.53125 -0.910156 12.84375 -2.109375 C 13.082031 -2.953125 13.203125 -4.851562 13.203125 -7.8125 Z M 10.75 0.390625 C 7.445312 0.390625 4.945312 -0.453125 3.25 -2.140625 C 1.5625 -3.828125 0.71875 -6.25 0.71875 -9.40625 C 0.71875 -12.570312 1.617188 -15.003906 3.421875 -16.703125 C 5.234375 -18.410156 7.78125 -19.265625 11.0625 -19.265625 C 14.34375 -19.265625 16.785156 -18.476562 18.390625 -16.90625 C 20.003906 -15.332031 20.8125 -12.9375 20.8125 -9.71875 C 20.8125 -2.976562 17.457031 0.390625 10.75 0.390625 Z M 10.75 0.390625 "/></g></g></g><g fill="#b158cb" fill-opacity="1"><g transform="translate(236.280607, 202.974557)"><g><path d="M 23.59375 0 L 14.546875 0 L 14.125 -2.890625 C 13.695312 -1.835938 13.066406 -1.023438 12.234375 -0.453125 C 11.398438 0.109375 10.164062 0.390625 8.53125 0.390625 C 4.425781 0.390625 2.375 -1.8125 2.375 -6.21875 L 2.375 -18.15625 L 0.15625 -18.15625 L 0.15625 -18.875 L 9.75 -18.875 L 9.75 -5.28125 C 9.75 -3.6875 9.859375 -2.640625 10.078125 -2.140625 C 10.304688 -1.640625 10.757812 -1.390625 11.4375 -1.390625 C 12.113281 -1.390625 12.710938 -1.796875 13.234375 -2.609375 C 13.765625 -3.429688 14.03125 -4.570312 14.03125 -6.03125 L 14.03125 -18.15625 L 12.21875 -18.15625 L 12.21875 -18.875 L 21.421875 -18.875 L 21.421875 -0.71875 L 23.59375 -0.71875 Z M 23.59375 0 "/></g></g></g><g fill="#b158cb" fill-opacity="1"><g transform="translate(260.265807, 202.974557)"><g><path d="M 13.640625 -17.765625 C 12.660156 -17.765625 11.800781 -17.128906 11.0625 -15.859375 C 10.320312 -14.585938 9.953125 -13.082031 9.953125 -11.34375 L 9.953125 -0.71875 L 12.765625 -0.71875 L 12.765625 0 L 0.390625 0 L 0.390625 -0.71875 L 2.578125 -0.71875 L 2.578125 -18.15625 L 0.390625 -18.15625 L 0.390625 -18.875 L 9.953125 -18.875 L 9.953125 -15.0625 C 10.296875 -16.414062 10.957031 -17.453125 11.9375 -18.171875 C 12.914062 -18.898438 14.023438 -19.265625 15.265625 -19.265625 C 16.503906 -19.265625 17.515625 -18.914062 18.296875 -18.21875 C 19.078125 -17.519531 19.46875 -16.53125 19.46875 -15.25 C 19.46875 -13.96875 19.175781 -12.984375 18.59375 -12.296875 C 18.007812 -11.609375 17.117188 -11.265625 15.921875 -11.265625 C 14.722656 -11.265625 13.835938 -11.660156 13.265625 -12.453125 C 12.691406 -13.242188 12.617188 -14.34375 13.046875 -15.75 L 14.46875 -15.75 C 15.132812 -17.09375 14.859375 -17.765625 13.640625 -17.765625 Z M 13.640625 -17.765625 "/></g></g></g><g fill="#545454" fill-opacity="1"><g transform="translate(164.381074, 213.819797)"><g><path d="M 0.546875 0 L 0.546875 -4.578125 L 2.59375 -4.578125 C 3.0625 -4.578125 3.429688 -4.460938 3.703125 -4.234375 C 3.972656 -4.015625 4.109375 -3.71875 4.109375 -3.34375 C 4.109375 -3.132812 4.0625 -2.941406 3.96875 -2.765625 C 3.875 -2.585938 3.738281 -2.445312 3.5625 -2.34375 C 3.78125 -2.25 3.945312 -2.109375 4.0625 -1.921875 C 4.1875 -1.734375 4.25 -1.519531 4.25 -1.28125 C 4.25 -1.019531 4.179688 -0.789062 4.046875 -0.59375 C 3.921875 -0.40625 3.738281 -0.257812 3.5 -0.15625 C 3.269531 -0.0507812 3.003906 0 2.703125 0 Z M 1.578125 -0.828125 L 2.546875 -0.828125 C 2.742188 -0.828125 2.898438 -0.875 3.015625 -0.96875 C 3.128906 -1.0625 3.1875 -1.195312 3.1875 -1.375 C 3.1875 -1.539062 3.128906 -1.671875 3.015625 -1.765625 C 2.898438 -1.867188 2.742188 -1.921875 2.546875 -1.921875 L 1.578125 -1.921875 Z M 1.578125 -2.703125 L 2.4375 -2.703125 C 2.632812 -2.703125 2.785156 -2.75 2.890625 -2.84375 C 3.003906 -2.9375 3.0625 -3.066406 3.0625 -3.234375 C 3.0625 -3.398438 3.003906 -3.523438 2.890625 -3.609375 C 2.785156 -3.703125 2.632812 -3.75 2.4375 -3.75 L 1.578125 -3.75 Z M 1.578125 -2.703125 "/></g></g></g><g fill="#545454" fill-opacity="1"><g transform="translate(171.620658, 213.819797)"><g><path d="M 0.546875 0 L 0.546875 -4.578125 L 3.546875 -4.578125 L 3.546875 -3.703125 L 1.578125 -3.703125 L 1.578125 -2.75 L 3.375 -2.75 L 3.375 -1.875 L 1.578125 -1.875 L 1.578125 -0.875 L 3.625 -0.875 L 3.625 0 Z M 0.546875 0 "/></g></g></g><g fill="#545454" fill-opacity="1"><g transform="translate(178.319145, 213.819797)"><g><path d="M 0.0625 0 L 1.875 -4.578125 L 2.890625 -4.578125 L 4.703125 0 L 3.59375 0 L 3.296875 -0.796875 L 1.46875 -0.796875 L 1.171875 0 Z M 1.75 -1.609375 L 3.03125 -1.609375 L 2.390625 -3.28125 Z M 1.75 -1.609375 "/></g></g></g><g fill="#545454" fill-opacity="1"><g transform="translate(185.826015, 213.819797)"><g><path d="M 2.421875 0.09375 C 2.023438 0.09375 1.679688 0.015625 1.390625 -0.140625 C 1.109375 -0.304688 0.890625 -0.535156 0.734375 -0.828125 C 0.578125 -1.117188 0.5 -1.46875 0.5 -1.875 L 0.5 -4.578125 L 1.546875 -4.578125 L 1.546875 -1.953125 C 1.546875 -1.242188 1.835938 -0.890625 2.421875 -0.890625 C 3.003906 -0.890625 3.296875 -1.242188 3.296875 -1.953125 L 3.296875 -4.578125 L 4.328125 -4.578125 L 4.328125 -1.875 C 4.328125 -1.46875 4.25 -1.117188 4.09375 -0.828125 C 3.9375 -0.535156 3.71875 -0.304688 3.4375 -0.140625 C 3.15625 0.015625 2.816406 0.09375 2.421875 0.09375 Z M 2.421875 0.09375 "/></g></g></g><g fill="#545454" fill-opacity="1"><g transform="translate(193.398077, 213.819797)"><g><path d="M 1.640625 0 L 1.640625 -3.59375 L 0.203125 -3.59375 L 0.203125 -4.578125 L 4.140625 -4.578125 L 4.140625 -3.59375 L 2.6875 -3.59375 L 2.6875 0 Z M 1.640625 0 "/></g></g></g><g fill="#545454" fill-opacity="1"><g transform="translate(200.468162, 213.819797)"><g><path d="M 1.75 0 L 1.75 -1.59375 L 0.0625 -4.578125 L 1.234375 -4.578125 L 1.8125 -3.515625 L 2.265625 -2.6875 L 2.71875 -3.515625 L 3.28125 -4.578125 L 4.453125 -4.578125 L 2.78125 -1.609375 L 2.78125 0 Z M 1.75 0 "/></g></g></g><g fill="#545454" fill-opacity="1"><g transform="translate(207.727305, 213.819797)"><g/></g></g><g fill="#545454" fill-opacity="1"><g transform="translate(212.007174, 213.819797)"><g><path d="M 2.140625 0.09375 C 1.753906 0.09375 1.421875 0.03125 1.140625 -0.09375 C 0.867188 -0.21875 0.65625 -0.394531 0.5 -0.625 C 0.351562 -0.863281 0.28125 -1.140625 0.28125 -1.453125 L 1.3125 -1.453125 C 1.3125 -1.234375 1.382812 -1.0625 1.53125 -0.9375 C 1.675781 -0.820312 1.878906 -0.765625 2.140625 -0.765625 C 2.359375 -0.765625 2.53125 -0.804688 2.65625 -0.890625 C 2.78125 -0.972656 2.84375 -1.09375 2.84375 -1.25 C 2.84375 -1.40625 2.765625 -1.535156 2.609375 -1.640625 C 2.460938 -1.742188 2.226562 -1.828125 1.90625 -1.890625 C 1.363281 -2.003906 0.960938 -2.175781 0.703125 -2.40625 C 0.453125 -2.632812 0.328125 -2.9375 0.328125 -3.3125 C 0.328125 -3.726562 0.476562 -4.054688 0.78125 -4.296875 C 1.082031 -4.535156 1.5 -4.65625 2.03125 -4.65625 C 2.394531 -4.65625 2.707031 -4.59375 2.96875 -4.46875 C 3.238281 -4.351562 3.445312 -4.179688 3.59375 -3.953125 C 3.738281 -3.734375 3.8125 -3.46875 3.8125 -3.15625 L 2.8125 -3.15625 C 2.8125 -3.363281 2.742188 -3.523438 2.609375 -3.640625 C 2.472656 -3.753906 2.285156 -3.8125 2.046875 -3.8125 C 1.828125 -3.8125 1.65625 -3.769531 1.53125 -3.6875 C 1.40625 -3.601562 1.34375 -3.484375 1.34375 -3.328125 C 1.34375 -3.191406 1.410156 -3.070312 1.546875 -2.96875 C 1.679688 -2.875 1.925781 -2.785156 2.28125 -2.703125 C 2.851562 -2.578125 3.265625 -2.398438 3.515625 -2.171875 C 3.765625 -1.941406 3.890625 -1.644531 3.890625 -1.28125 C 3.890625 -0.851562 3.734375 -0.515625 3.421875 -0.265625 C 3.109375 -0.0234375 2.679688 0.09375 2.140625 0.09375 Z M 2.140625 0.09375 "/></g></g></g><g fill="#545454" fill-opacity="1"><g transform="translate(218.933839, 213.819797)"><g><path d="M 0.0625 0 L 1.875 -4.578125 L 2.890625 -4.578125 L 4.703125 0 L 3.59375 0 L 3.296875 -0.796875 L 1.46875 -0.796875 L 1.171875 0 Z M 1.75 -1.609375 L 3.03125 -1.609375 L 2.390625 -3.28125 Z M 1.75 -1.609375 "/></g></g></g><g fill="#545454" fill-opacity="1"><g transform="translate(226.44071, 213.819797)"><g><path d="M 0.546875 0 L 0.546875 -4.578125 L 1.59375 -4.578125 L 1.59375 -0.96875 L 3.578125 -0.96875 L 3.578125 0 Z M 0.546875 0 "/></g></g></g><g fill="#545454" fill-opacity="1"><g transform="translate(232.943621, 213.819797)"><g><path d="M 2.71875 0.09375 C 2.238281 0.09375 1.816406 -0.00390625 1.453125 -0.203125 C 1.085938 -0.410156 0.800781 -0.691406 0.59375 -1.046875 C 0.382812 -1.410156 0.28125 -1.820312 0.28125 -2.28125 C 0.28125 -2.75 0.382812 -3.160156 0.59375 -3.515625 C 0.800781 -3.878906 1.085938 -4.160156 1.453125 -4.359375 C 1.816406 -4.554688 2.238281 -4.65625 2.71875 -4.65625 C 3.195312 -4.65625 3.617188 -4.554688 3.984375 -4.359375 C 4.347656 -4.160156 4.632812 -3.878906 4.84375 -3.515625 C 5.050781 -3.160156 5.15625 -2.75 5.15625 -2.28125 C 5.15625 -1.820312 5.050781 -1.410156 4.84375 -1.046875 C 4.632812 -0.691406 4.347656 -0.410156 3.984375 -0.203125 C 3.617188 -0.00390625 3.195312 0.09375 2.71875 0.09375 Z M 1.34375 -2.28125 C 1.34375 -2.007812 1.398438 -1.769531 1.515625 -1.5625 C 1.628906 -1.351562 1.789062 -1.1875 2 -1.0625 C 2.207031 -0.945312 2.445312 -0.890625 2.71875 -0.890625 C 2.988281 -0.890625 3.226562 -0.945312 3.4375 -1.0625 C 3.644531 -1.1875 3.804688 -1.351562 3.921875 -1.5625 C 4.035156 -1.769531 4.09375 -2.007812 4.09375 -2.28125 C 4.09375 -2.5625 4.035156 -2.804688 3.921875 -3.015625 C 3.804688 -3.222656 3.644531 -3.382812 3.4375 -3.5 C 3.226562 -3.613281 2.988281 -3.671875 2.71875 -3.671875 C 2.445312 -3.671875 2.207031 -3.613281 2 -3.5 C 1.789062 -3.382812 1.628906 -3.222656 1.515625 -3.015625 C 1.398438 -2.804688 1.34375 -2.5625 1.34375 -2.28125 Z M 1.34375 -2.28125 "/></g></g></g><g fill="#545454" fill-opacity="1"><g transform="translate(241.121967, 213.819797)"><g><path d="M 0.546875 0 L 0.546875 -4.578125 L 1.4375 -4.578125 L 3.453125 -1.796875 L 3.453125 -4.578125 L 4.484375 -4.578125 L 4.484375 0 L 3.59375 0 L 1.578125 -2.796875 L 1.578125 0 Z M 0.546875 0 "/></g></g></g></svg>